<?xml version="1.0" standalone="no"?>
<!DOCTYPE svg PUBLIC "-//W3C//DTD SVG 20010904//EN"
 "http://www.w3.org/TR/2001/REC-SVG-20010904/DTD/svg10.dtd">
<svg version="1.0" xmlns="http://www.w3.org/2000/svg"
 width="1024.000000pt" height="1024.000000pt" viewBox="0 0 1024.000000 1024.000000"
 preserveAspectRatio="xMidYMid meet">
<metadata>
Created by potrace 1.14, written by Peter Selinger 2001-2017
</metadata>
<g transform="translate(0.000000,1024.000000) scale(0.100000,-0.100000)"
fill="#000000" stroke="none">
<path d="M5121 8820 c-7 -4 -26 -6 -42 -4 -17 2 -28 0 -25 -5 3 -4 -6 -6 -19
-3 -14 2 -31 -1 -39 -7 -8 -7 -15 -8 -18 -2 -1 5 -20 1 -41 -9 -20 -10 -34
-14 -31 -8 4 6 -3 5 -15 -1 -12 -7 -26 -9 -31 -6 -6 3 -10 -2 -11 -12 0 -11
-3 -13 -6 -5 -4 10 -8 10 -19 1 -11 -9 -14 -8 -14 2 0 9 -3 10 -8 3 -4 -5 -22
-16 -39 -23 -18 -7 -31 -17 -28 -21 2 -3 -9 -6 -25 -5 -16 1 -27 -2 -25 -6 3
-4 -7 -15 -21 -24 -15 -9 -23 -12 -20 -6 5 7 1 9 -8 5 -9 -3 -13 -10 -10 -15
3 -5 -2 -6 -10 -3 -11 4 -16 0 -16 -11 0 -15 -2 -16 -17 -4 -9 8 -14 9 -10 3
6 -11 -26 -28 -45 -25 -5 1 -8 -3 -8 -9 0 -5 -9 -10 -19 -10 -11 0 -23 -5 -27
-12 -5 -7 -3 -8 6 -3 8 5 11 4 6 -3 -3 -6 -15 -9 -26 -7 -11 2 -20 1 -20 -3 0
-4 -14 -13 -31 -19 -17 -7 -28 -16 -25 -22 3 -5 -3 -7 -14 -4 -24 6 -73 -24
-64 -39 4 -7 3 -8 -5 -4 -6 4 -9 11 -6 16 8 12 -23 6 -37 -8 -7 -7 -18 -12
-26 -12 -7 0 -23 -5 -35 -12 -21 -12 -26 -13 -55 -16 -7 -1 -11 -6 -8 -11 4
-5 -7 -7 -24 -5 -16 3 -30 1 -30 -5 0 -5 -8 -8 -17 -6 -10 1 -22 0 -28 -4 -13
-7 -35 -13 -62 -15 -13 0 -23 -5 -23 -9 0 -5 -4 -6 -9 -2 -5 3 -12 1 -15 -4
-3 -5 -15 -7 -25 -4 -10 3 -22 0 -25 -5 -3 -6 -16 -8 -28 -4 -13 3 -19 1 -15
-5 4 -6 -6 -9 -23 -8 -17 1 -30 -2 -30 -7 0 -5 -5 -6 -10 -3 -14 8 -52 -4 -45
-15 6 -10 -15 -8 -32 3 -7 5 -13 4 -13 0 0 -5 -9 -10 -20 -11 -11 -1 -29 -3
-40 -4 -11 -1 -20 -6 -20 -11 0 -4 -4 -5 -10 -2 -5 3 -10 1 -10 -6 0 -7 -3
-10 -6 -6 -4 3 -22 0 -40 -8 -19 -8 -34 -12 -34 -9 0 2 -10 -2 -23 -11 -13 -8
-27 -12 -32 -8 -4 5 -5 -1 -1 -11 5 -16 4 -17 -9 -6 -8 7 -16 10 -16 6 -1 -3
-2 -10 -3 -15 0 -5 -5 -13 -10 -18 -5 -4 -6 -3 -3 3 14 25 -23 21 -49 -4 -15
-15 -25 -22 -21 -16 3 6 -1 11 -9 11 -8 0 -13 -6 -10 -14 3 -7 -1 -13 -9 -13
-8 0 -15 -5 -15 -10 0 -6 -6 -9 -12 -8 -7 2 -12 -2 -11 -8 1 -6 -4 -11 -12
-11 -8 0 -11 5 -8 10 3 6 -6 2 -20 -9 -15 -10 -27 -22 -27 -26 0 -5 -7 -8 -15
-8 -8 0 -15 -4 -15 -9 0 -5 -9 -11 -21 -14 -12 -3 -19 -9 -17 -14 3 -4 -3 -16
-14 -25 -18 -18 -25 -12 -10 8 4 5 0 2 -9 -8 -9 -9 -19 -14 -23 -11 -3 4 -6 1
-6 -5 0 -7 -7 -12 -15 -12 -8 0 -15 -7 -15 -15 0 -8 -7 -15 -16 -15 -8 0 -12
-4 -9 -10 3 -5 -6 -12 -20 -16 -14 -3 -25 -10 -25 -16 0 -5 5 -6 12 -2 7 4 8
3 4 -5 -4 -6 -11 -9 -15 -6 -5 2 -17 -3 -27 -11 -10 -9 -12 -13 -4 -9 8 4 6
-1 -5 -10 -11 -9 -19 -22 -17 -28 2 -7 0 -9 -3 -5 -13 12 -47 -12 -41 -29 5
-11 2 -13 -9 -9 -17 6 -37 -31 -27 -49 3 -5 -3 -3 -13 5 -11 9 -16 10 -11 3 4
-8 2 -13 -5 -13 -8 0 -7 -5 2 -17 10 -11 10 -14 2 -9 -8 4 -13 2 -13 -4 0 -6
-4 -8 -10 -5 -5 3 -10 1 -10 -5 0 -6 -5 -8 -12 -4 -9 5 -9 2 1 -9 13 -17 7
-22 -20 -19 -4 1 -5 -7 -2 -17 2 -9 -4 -24 -14 -32 -16 -13 -17 -13 -4 4 7 9
9 17 4 17 -11 0 -35 -48 -30 -58 2 -4 -10 -20 -27 -37 -16 -16 -23 -21 -15
-10 13 18 13 19 -4 6 -14 -11 -15 -17 -5 -28 6 -8 7 -13 2 -11 -10 3 -38 -22
-64 -56 -9 -13 -10 -17 -2 -12 6 4 12 2 12 -4 0 -6 -7 -13 -16 -17 -13 -5 -13
-7 -2 -14 10 -7 8 -9 -6 -9 -12 0 -16 -5 -13 -15 4 -8 1 -17 -5 -21 -7 -5 -8
-2 -3 7 8 12 6 12 -9 0 -12 -10 -13 -16 -6 -21 7 -5 3 -9 -10 -13 -12 -3 -19
-10 -16 -15 3 -6 -1 -13 -10 -16 -9 -4 -14 -13 -10 -21 3 -8 0 -15 -6 -15 -6
0 -9 -3 -5 -6 3 -4 -1 -13 -9 -21 -8 -8 -12 -19 -8 -24 3 -5 2 -8 -3 -7 -4 2
-10 -1 -12 -7 -2 -5 -11 -15 -19 -21 -11 -8 -12 -13 -3 -19 9 -5 7 -12 -8 -26
-19 -18 -26 -39 -22 -63 1 -5 -4 -5 -11 1 -10 9 -13 6 -14 -10 -3 -33 -8 -51
-17 -58 -4 -3 -9 -16 -10 -27 -1 -12 -5 -22 -10 -22 -5 0 -7 -11 -5 -24 1 -13
-4 -31 -12 -42 -10 -12 -11 -15 -2 -10 11 7 11 4 1 -12 -7 -12 -18 -18 -24
-14 -5 3 -3 -3 5 -13 14 -17 13 -18 -2 -12 -15 5 -16 2 -8 -18 7 -19 6 -23 -5
-19 -9 4 -13 -1 -11 -13 2 -10 -2 -21 -8 -25 -7 -5 -7 -8 2 -8 10 0 10 -4 -2
-15 -8 -8 -13 -24 -11 -35 2 -11 -1 -20 -6 -20 -6 0 -7 -9 -4 -20 3 -11 2 -20
-4 -20 -5 0 -10 -8 -10 -17 0 -10 -2 -31 -5 -48 -2 -16 -4 -34 -5 -38 -1 -5
-6 -5 -13 -1 -7 5 -8 3 -3 -7 11 -17 14 -49 5 -49 -11 0 -9 -40 3 -40 7 0 4
-5 -7 -11 -15 -9 -16 -13 -5 -20 12 -7 12 -9 0 -9 -11 0 -11 -3 -1 -15 10 -12
10 -15 -1 -15 -12 0 -12 -2 0 -9 9 -6 10 -11 2 -15 -7 -5 -6 -14 4 -29 9 -14
11 -27 6 -36 -5 -8 -7 -21 -3 -29 3 -9 1 -13 -5 -9 -12 7 -12 -18 0 -29 3 -4
2 -15 -4 -25 -7 -13 -6 -19 1 -19 7 0 8 -6 0 -19 -7 -13 -7 -22 0 -26 5 -3 10
-13 10 -21 0 -9 -5 -12 -11 -8 -6 3 -3 -6 7 -22 11 -15 18 -28 17 -29 -1 0 -6
-13 -12 -28 -8 -21 -8 -26 1 -21 7 4 8 3 4 -4 -4 -6 -22 -10 -41 -8 -20 1 -33
-2 -32 -8 1 -6 -4 -10 -10 -9 -7 2 -13 -2 -13 -8 0 -5 -5 -7 -11 -3 -13 8
-100 -81 -90 -92 3 -4 1 -4 -5 -1 -18 10 -36 -19 -29 -45 5 -18 4 -20 -4 -8
-9 13 -11 12 -12 -5 -1 -11 -1 -26 0 -32 1 -7 -4 -13 -11 -13 -9 0 -9 -3 2
-10 12 -8 12 -10 1 -10 -10 0 -11 -3 -2 -14 9 -11 9 -15 -1 -19 -11 -4 -10 -6
0 -6 8 -1 10 -6 6 -13 -15 -24 -12 -49 5 -43 12 5 13 4 4 -6 -9 -9 -9 -18 3
-40 8 -16 12 -29 9 -29 -3 0 1 -10 9 -23 10 -14 12 -27 6 -37 -6 -9 -4 -20 3
-29 9 -12 9 -13 -1 -7 -7 4 -12 1 -13 -8 -3 -29 -4 -34 -11 -42 -4 -4 -2 -14
5 -22 10 -13 9 -14 -1 -8 -9 5 -12 -1 -10 -23 1 -17 7 -31 13 -31 5 0 3 -5 -5
-10 -9 -6 -11 -13 -5 -17 6 -5 10 -14 11 -20 1 -7 2 -22 3 -34 0 -13 5 -18 14
-13 9 6 9 4 -1 -8 -9 -11 -10 -18 -2 -23 5 -3 10 -15 10 -25 0 -10 8 -24 18
-29 9 -6 13 -11 9 -11 -4 0 3 -15 17 -33 14 -19 23 -37 18 -42 -4 -5 -2 -6 3
-3 6 3 16 0 23 -8 7 -8 9 -14 5 -14 -4 0 0 -5 10 -11 9 -5 17 -17 17 -25 0 -8
5 -12 10 -9 6 3 10 1 10 -5 0 -6 5 -8 12 -4 6 4 8 3 5 -3 -8 -13 38 -57 51
-49 5 3 9 -2 8 -12 0 -9 9 -21 22 -27 12 -5 22 -13 22 -17 0 -5 5 -8 11 -8 16
0 39 -26 31 -35 -4 -4 3 -2 15 4 20 10 22 9 16 -5 -5 -13 -3 -15 7 -9 10 6 12
4 7 -9 -5 -13 -3 -17 7 -13 10 4 13 -1 11 -20 -2 -18 3 -27 16 -30 10 -3 17
-9 14 -13 -3 -4 6 -19 19 -33 13 -14 21 -29 18 -32 -4 -3 1 -3 10 0 9 4 19 1
24 -6 5 -8 3 -10 -7 -4 -8 4 -4 -2 9 -14 13 -13 21 -30 18 -39 -3 -9 -7 -29
-10 -44 -3 -15 -7 -32 -11 -38 -3 -5 0 -10 7 -10 9 0 10 -2 2 -8 -7 -4 -12
-32 -11 -69 1 -34 5 -59 10 -56 5 3 4 -4 -2 -16 -7 -13 -8 -21 -2 -21 5 0 8
-9 6 -20 -2 -11 0 -22 5 -25 5 -3 7 -12 3 -20 -3 -9 1 -15 8 -15 11 0 11 -3
-1 -10 -10 -6 -11 -10 -2 -10 7 0 12 -13 12 -29 0 -17 5 -33 11 -37 8 -4 7 -9
-2 -15 -11 -6 -10 -9 3 -14 9 -4 14 -14 11 -25 -3 -10 0 -21 6 -24 6 -4 11
-18 11 -31 0 -12 7 -26 16 -29 8 -3 13 -10 10 -15 -9 -14 15 -61 28 -55 6 3 0
-4 -14 -16 -14 -12 -18 -18 -10 -14 9 4 12 3 7 -2 -5 -5 -13 -10 -18 -10 -5
-1 -14 -2 -20 -3 -5 0 -8 -5 -4 -10 3 -6 -4 -8 -15 -6 -11 2 -20 0 -20 -6 0
-5 -7 -9 -15 -9 -8 0 -15 -5 -15 -11 0 -5 -4 -7 -10 -4 -5 3 -10 0 -10 -7 0
-9 -3 -9 -10 2 -5 8 -10 10 -10 5 0 -6 -16 -19 -35 -29 -26 -14 -32 -22 -23
-29 9 -6 5 -7 -10 -4 -16 4 -22 2 -19 -7 4 -9 -2 -11 -21 -8 -21 4 -24 2 -18
-13 6 -16 4 -16 -11 -4 -11 9 -14 10 -9 2 4 -8 2 -13 -4 -13 -6 0 -8 -5 -4
-11 5 -8 1 -8 -14 0 -18 10 -20 9 -17 -10 3 -17 2 -19 -10 -9 -12 10 -16 9
-21 -4 -3 -9 -10 -13 -15 -10 -5 3 -12 -2 -15 -10 -3 -9 -11 -13 -17 -9 -5 3
-15 -1 -21 -9 -12 -16 -46 -32 -60 -29 -5 1 -5 -6 -2 -16 4 -9 4 -14 0 -10 -4
4 -13 2 -21 -5 -11 -9 -12 -7 -7 8 6 18 6 18 -7 2 -8 -9 -36 -28 -63 -42 -27
-14 -43 -26 -35 -27 8 0 -1 -7 -18 -15 -18 -8 -33 -21 -33 -28 0 -8 -4 -18
-10 -21 -6 -3 -7 1 -4 12 3 11 0 9 -8 -5 -8 -12 -18 -19 -23 -15 -4 4 -5 0 -2
-9 4 -10 2 -18 -4 -18 -6 0 -7 -5 -3 -12 4 -6 3 -9 -2 -5 -5 3 -18 -2 -29 -10
-20 -16 -20 -16 0 -9 19 6 19 5 2 -8 -14 -10 -15 -15 -5 -19 7 -3 2 -6 -12 -6
-20 -1 -22 -3 -10 -11 10 -7 12 -12 4 -18 -6 -4 -10 -15 -8 -24 1 -10 -2 -18
-8 -18 -6 0 -4 -7 3 -17 12 -14 12 -16 0 -8 -11 6 -13 4 -8 -8 4 -10 1 -17 -6
-17 -9 0 -8 -3 1 -9 8 -4 14 -12 14 -16 0 -4 -6 -12 -14 -16 -10 -7 -10 -9 0
-9 7 0 12 -12 12 -27 0 -51 5 -93 11 -93 6 0 8 -10 11 -55 1 -14 6 -25 11 -25
4 0 6 -4 2 -9 -3 -5 -1 -12 4 -16 6 -3 8 -12 4 -20 -3 -8 0 -15 6 -15 6 0 11
-9 11 -20 0 -11 5 -20 12 -20 6 0 9 -3 5 -6 -3 -4 0 -19 8 -34 8 -15 11 -30 8
-34 -4 -3 0 -6 8 -6 11 0 11 -2 -1 -10 -8 -5 -10 -10 -4 -10 7 0 15 -10 19
-22 4 -13 8 -25 9 -28 1 -3 8 -16 16 -30 8 -14 15 -32 16 -40 2 -8 8 -16 14
-18 5 -2 8 -8 4 -13 -3 -5 0 -9 6 -9 7 0 10 -6 7 -12 -2 -7 4 -20 14 -29 10
-8 19 -22 21 -29 2 -8 9 -21 16 -28 7 -8 10 -18 7 -23 -4 -5 1 -9 10 -9 9 0
13 -5 10 -10 -3 -6 1 -13 9 -16 9 -3 14 -9 11 -14 -2 -4 5 -16 15 -28 11 -12
20 -26 20 -32 0 -5 7 -10 16 -10 8 0 12 -4 9 -10 -3 -5 3 -17 15 -27 11 -10
20 -22 20 -28 0 -6 9 -17 19 -25 11 -7 18 -17 15 -22 -3 -4 0 -8 7 -8 7 0 10
-3 6 -6 -3 -3 6 -19 21 -36 15 -16 27 -35 27 -41 1 -24 18 -82 27 -94 5 -7 7
-16 4 -22 -3 -5 1 -12 10 -15 8 -3 13 -9 11 -13 -5 -11 30 -43 38 -35 3 4 3
-1 -1 -11 -3 -10 -1 -17 5 -17 6 0 11 -7 11 -16 0 -8 5 -12 10 -9 6 3 10 -1
10 -9 0 -8 9 -20 20 -26 11 -6 18 -15 15 -21 -4 -5 1 -9 9 -9 9 0 16 -5 16
-11 0 -5 5 -7 10 -4 6 3 10 -1 10 -10 0 -9 5 -13 10 -10 6 3 10 -1 10 -10 0
-9 5 -13 10 -10 6 3 10 -2 10 -11 0 -10 3 -15 6 -11 3 3 17 -6 30 -20 13 -14
24 -22 24 -18 0 4 7 2 15 -5 8 -7 13 -16 10 -20 -3 -4 3 -7 13 -6 10 0 16 -5
14 -13 -2 -8 3 -11 13 -8 8 4 15 3 15 -2 0 -5 13 -14 30 -21 16 -7 27 -16 24
-21 -3 -5 0 -9 5 -9 23 0 26 -2 38 -23 6 -12 14 -21 17 -19 16 6 26 1 20 -10
-5 -8 0 -7 11 2 11 9 16 10 11 3 -7 -12 5 -18 27 -14 5 1 6 -2 4 -6 -3 -5 11
-19 30 -32 19 -12 32 -17 28 -9 -3 7 1 4 10 -7 9 -11 21 -20 28 -20 7 -1 11
-7 9 -15 -3 -11 0 -11 14 1 12 9 15 9 10 2 -4 -8 -2 -13 8 -13 8 0 22 -7 30
-16 9 -8 16 -12 16 -8 0 4 7 -1 16 -12 8 -10 12 -12 8 -4 -4 8 7 2 24 -14 18
-17 32 -26 32 -22 0 5 7 2 16 -5 9 -8 22 -14 28 -15 6 0 17 -2 24 -2 7 -1 10
-7 7 -13 -4 -6 -1 -10 6 -8 24 3 40 -1 36 -8 -3 -5 7 -9 21 -10 15 0 28 -6 30
-12 2 -6 8 -11 13 -11 6 0 7 6 4 12 -4 7 2 3 13 -9 15 -17 22 -19 32 -10 10 9
11 9 6 0 -4 -8 -1 -13 8 -13 9 0 32 -9 51 -20 20 -11 34 -16 30 -10 -3 6 0 7
9 4 9 -3 16 -10 16 -14 0 -4 10 -6 23 -6 12 1 33 -7 46 -18 13 -12 21 -15 17
-8 -4 6 -2 12 3 12 6 0 11 -5 11 -11 0 -6 6 -9 14 -6 7 3 19 0 25 -6 10 -10
25 -15 64 -19 9 -1 17 -5 17 -8 0 -3 8 -7 18 -8 37 -4 51 -8 66 -21 11 -10 16
-10 16 -2 0 7 5 9 13 4 6 -4 17 -8 22 -10 6 -1 24 -6 42 -11 17 -6 34 -8 37
-4 3 3 6 1 6 -4 0 -8 22 -14 68 -17 6 0 12 -5 12 -10 0 -5 6 -7 14 -4 8 3 17
1 20 -6 3 -8 5 -8 5 2 1 10 7 10 27 -4 15 -9 23 -11 19 -4 -6 8 -4 10 6 3 14
-8 20 -10 69 -19 25 -4 49 -9 93 -21 22 -6 91 -21 137 -30 14 -3 33 -6 43 -7
9 -1 17 -5 17 -10 0 -5 7 -4 15 3 8 7 15 8 15 3 0 -8 27 -14 78 -16 12 -1 22
-4 22 -7 0 -3 17 -7 38 -8 20 -1 55 -5 77 -7 99 -13 151 -15 320 -15 163 0
246 3 253 10 1 1 5 3 10 4 92 19 132 30 132 37 0 5 8 9 18 9 10 0 22 3 26 7 4
4 39 9 77 10 52 2 74 -1 85 -12 9 -8 20 -13 25 -10 5 4 9 2 9 -3 0 -9 9 -11
55 -15 14 -1 25 -5 25 -9 0 -4 8 -7 18 -7 41 -1 148 -8 157 -11 6 -1 12 -1 15
0 3 1 55 3 115 5 106 4 176 9 280 21 28 3 62 7 78 7 15 1 27 4 27 7 0 3 12 6
28 7 80 5 93 7 98 14 2 4 13 6 24 4 11 -2 20 -1 20 3 0 4 12 8 28 9 38 2 81
12 105 24 14 8 17 8 13 0 -5 -7 -1 -9 8 -5 9 3 16 9 16 13 0 3 12 7 28 8 15 1
45 6 67 13 22 6 45 12 50 14 6 1 26 6 45 10 19 5 40 11 45 14 6 4 15 7 20 8
28 5 41 10 47 18 3 5 17 10 30 12 35 3 57 9 64 17 4 4 16 7 26 7 10 0 18 5 18
10 0 6 3 9 8 8 13 -4 81 25 76 33 -2 4 5 5 16 2 12 -3 20 0 20 8 0 7 3 10 6 7
3 -4 30 7 61 23 30 16 60 26 66 22 6 -3 7 -1 3 5 -4 7 -1 12 8 12 9 0 16 5 16
11 0 5 5 7 11 3 6 -3 14 -3 18 2 8 12 61 44 84 51 9 3 17 9 17 14 0 5 7 5 17
2 11 -4 14 -3 9 5 -4 7 -2 13 3 13 6 1 16 2 22 3 6 0 16 9 23 18 7 10 16 15
19 11 4 -3 7 -1 7 6 0 7 4 10 9 7 5 -3 12 1 15 10 4 9 13 14 22 10 8 -3 12 -2
9 4 -3 6 5 14 20 20 14 5 28 16 31 25 3 8 10 13 14 10 4 -2 15 4 25 15 10 11
22 17 28 13 5 -3 8 -2 5 3 -3 5 0 15 8 22 8 7 14 9 14 5 0 -4 5 0 11 10 5 9
17 17 25 17 8 0 13 4 9 9 -3 5 4 13 16 16 11 4 18 9 15 12 -3 3 13 21 35 39
23 19 38 34 34 34 -3 0 10 16 31 35 20 19 33 35 29 35 -4 0 4 11 19 25 14 13
26 28 26 33 0 5 11 21 24 35 13 14 22 28 19 31 -3 3 8 17 23 31 16 15 28 30
27 33 -5 14 22 60 31 55 5 -4 7 1 3 10 -3 10 -2 17 4 17 6 0 8 4 5 9 -4 5 -1
11 6 13 6 2 12 11 13 19 2 7 13 36 25 63 13 26 23 55 23 62 0 8 3 14 7 14 4 0
7 6 7 13 1 6 9 39 18 72 9 33 18 70 18 83 1 12 5 22 10 22 5 0 7 7 3 15 -3 8
-1 15 4 15 5 0 7 9 5 20 -2 11 1 22 6 25 5 4 7 10 4 15 -3 5 -1 11 5 15 7 4 6
13 -1 27 -9 16 -8 19 2 13 9 -6 11 -3 6 8 -4 10 -2 17 5 17 7 0 6 5 -2 15 -10
12 -10 15 0 15 8 0 10 3 7 6 -3 4 -2 15 4 25 7 14 6 19 -3 19 -8 0 -9 3 -3 8
15 10 16 72 2 72 -7 0 -6 4 2 9 11 7 12 13 3 23 -6 8 -13 29 -15 48 -5 45 -21
82 -41 99 -9 7 -13 17 -10 22 3 5 -2 12 -10 15 -9 3 -13 10 -10 15 3 5 -1 9
-8 9 -9 0 -9 3 2 10 9 6 11 13 5 17 -5 5 -11 17 -13 28 -1 11 -5 31 -8 45 -3
14 -5 33 -5 42 0 10 -4 20 -10 23 -5 4 -9 19 -9 36 0 16 -4 29 -10 29 -5 0
-10 12 -10 26 0 14 -4 23 -10 19 -5 -3 -10 3 -10 14 0 12 -4 21 -9 21 -5 0
-14 14 -21 30 -7 17 -16 30 -20 30 -7 0 -8 3 -11 58 -1 17 -5 32 -9 32 -4 0
-6 11 -5 25 2 14 -1 23 -6 19 -5 -3 -6 -10 -3 -16 4 -6 2 -8 -4 -4 -6 3 -9 15
-7 26 2 13 -2 20 -11 20 -8 0 -15 5 -15 10 -1 6 -2 16 -3 22 0 7 -13 19 -28
26 -16 7 -28 18 -28 24 0 5 -7 8 -15 4 -14 -5 -20 6 -16 28 1 5 -6 3 -15 -5
-10 -8 -15 -9 -11 -3 5 9 -43 34 -66 33 -4 0 -15 8 -24 17 -12 12 -18 13 -21
5 -3 -8 -9 -6 -18 6 -7 10 -14 13 -14 7 0 -6 -6 -11 -14 -11 -8 0 -12 5 -10
11 3 7 -9 11 -28 11 -18 -1 -36 3 -39 7 -3 5 -19 10 -36 11 -17 1 -29 5 -27 8
4 7 -46 19 -78 20 -10 0 -18 6 -18 12 0 8 -3 7 -9 -2 -6 -9 -11 -10 -15 -3 -4
6 -13 9 -21 5 -8 -3 -15 0 -15 7 0 6 -4 9 -9 6 -5 -4 -12 0 -14 6 -3 7 -6 4
-6 -6 -1 -20 -1 -20 -17 0 -8 10 -13 13 -9 7 3 -7 1 -13 -4 -13 -6 0 -11 6
-11 13 0 8 -4 7 -10 -3 -8 -13 -10 -12 -10 4 0 13 -5 17 -20 13 -11 -3 -20 0
-20 6 0 8 -3 7 -9 -1 -6 -11 -10 -10 -15 4 -6 16 -8 16 -16 4 -8 -12 -10 -12
-10 -1 0 9 -8 12 -24 9 -19 -4 -23 -1 -18 11 4 12 2 14 -9 6 -8 -6 -21 -10
-29 -9 -8 1 -21 2 -28 3 -7 0 -10 6 -6 12 4 8 0 8 -15 0 -17 -10 -22 -9 -27 4
-5 12 -9 13 -20 4 -11 -9 -14 -8 -14 7 0 15 -2 16 -9 5 -6 -9 -11 -10 -15 -2
-4 6 -12 9 -17 6 -5 -4 -9 -1 -9 6 0 8 -5 7 -17 -2 -14 -12 -16 -12 -8 0 6 11
4 13 -9 8 -10 -4 -15 -3 -11 3 7 11 -56 29 -90 26 -13 -2 -22 1 -19 5 8 13
-10 11 -25 -3 -11 -11 -12 -9 -6 12 7 22 7 23 -9 7 -20 -19 -50 -11 -42 12 5
13 3 13 -8 -2 -12 -15 -14 -16 -20 -2 -6 17 -26 21 -26 4 0 -5 5 -7 12 -3 7 4
8 3 4 -4 -5 -9 -12 -9 -26 0 -10 7 -16 17 -12 23 3 5 -2 4 -12 -4 -11 -9 -20
-11 -24 -5 -4 5 -19 9 -34 9 -16 -1 -28 2 -28 6 0 4 -8 6 -17 4 -10 -1 -23 2
-30 7 -7 5 -17 7 -23 3 -5 -3 -10 -2 -10 2 0 5 -8 9 -17 10 -47 5 -83 16 -84
27 -3 31 4 73 14 85 10 12 9 13 -3 6 -13 -7 -13 -6 -2 7 7 9 12 20 10 24 -1 5
3 19 10 32 9 14 9 22 2 22 -6 0 -1 10 10 22 12 13 16 24 11 26 -6 2 -7 10 -2
20 20 39 31 68 34 87 1 11 6 26 10 33 5 6 5 17 2 22 -3 6 -1 10 4 10 6 0 10 3
10 8 -1 4 -1 9 1 12 1 3 3 18 5 34 2 16 10 33 17 37 10 7 10 9 -1 9 -9 0 -10
4 -4 13 9 10 19 51 27 107 1 9 5 20 8 25 3 6 4 18 3 28 -2 9 1 17 7 17 7 0 7
4 1 13 -5 6 -9 31 -8 55 0 24 -3 46 -7 48 -5 3 -6 10 -3 15 4 5 3 15 -2 22 -9
15 -13 31 -16 74 -1 18 -6 33 -11 33 -4 0 -6 9 -3 20 3 11 2 20 -2 20 -3 0 -6
21 -5 48 0 26 -2 52 -5 57 -9 17 -8 59 3 74 9 11 8 13 -2 7 -10 -6 -13 -2 -12
15 1 13 1 26 0 29 -6 18 -3 90 4 90 5 0 3 7 -4 15 -10 12 -10 15 0 15 8 0 11
3 7 6 -6 7 13 30 26 32 5 0 17 10 26 21 10 12 23 21 30 21 6 0 11 7 11 16 0
10 6 14 15 10 10 -3 17 3 21 20 4 14 9 23 11 20 7 -7 93 120 93 137 0 8 7 20
15 27 9 7 14 18 12 25 -3 6 1 19 9 29 7 11 11 23 8 27 -3 5 -2 15 3 22 14 21
31 77 22 71 -5 -3 -6 2 -3 10 3 9 9 14 13 12 4 -3 6 10 6 27 -2 39 4 59 15 52
5 -3 5 8 0 25 -6 21 -5 28 2 24 7 -5 9 0 6 14 -4 12 -2 24 2 27 5 3 9 13 9 23
0 9 2 40 5 67 9 73 17 171 21 240 2 33 4 60 4 60 1 0 3 42 6 93 2 57 9 99 17
109 8 11 9 14 1 10 -9 -6 -11 1 -7 25 10 57 10 159 1 165 -5 3 -3 9 4 14 12 7
12 9 0 9 -11 0 -11 3 0 17 8 10 9 14 2 10 -7 -5 -12 -1 -12 10 1 18 -8 76 -12
81 -1 1 -3 11 -4 22 -1 11 -4 23 -5 28 -1 4 -3 12 -5 17 -1 6 -3 12 -4 15 -3
6 -10 38 -15 65 -2 11 -7 28 -11 37 -4 9 -4 22 0 28 3 5 1 10 -5 10 -6 0 -8 5
-5 10 3 6 0 10 -7 10 -9 0 -9 3 2 10 12 7 12 10 1 10 -7 0 -11 6 -7 15 3 8 1
15 -5 15 -6 0 -9 6 -6 14 3 8 3 16 -1 18 -9 4 -42 58 -49 81 -3 9 -11 17 -19
17 -8 0 -11 8 -9 21 3 12 2 19 -1 16 -7 -7 -94 77 -94 91 0 6 -5 14 -12 18 -7
5 -8 3 -3 -6 6 -9 4 -11 -6 -5 -35 20 -41 28 -27 37 9 6 5 7 -9 3 -14 -4 -23
-2 -23 5 0 6 -4 8 -10 5 -5 -3 -10 -2 -10 4 0 5 -16 15 -35 22 -19 7 -35 16
-35 19 0 3 -12 7 -27 8 -15 1 -30 7 -34 13 -4 7 -11 9 -16 6 -6 -4 -19 4 -31
18 -14 16 -17 25 -9 29 9 3 9 5 0 5 -8 1 -13 15 -13 34 0 17 -4 39 -10 47 -5
9 -5 19 2 27 8 11 7 12 -7 7 -12 -5 -16 -4 -11 4 4 6 0 27 -8 47 -8 19 -12 35
-8 35 4 0 2 4 -5 8 -6 4 -13 14 -15 22 -2 8 -11 23 -20 34 -10 11 -18 26 -18
33 0 8 -4 11 -10 8 -5 -3 -10 3 -10 15 0 12 -4 19 -9 16 -5 -3 -12 5 -15 19
-4 14 -13 25 -22 25 -8 0 -12 5 -9 11 4 5 -2 18 -14 28 -11 10 -18 21 -14 25
3 3 -1 6 -10 6 -17 0 -40 32 -32 44 3 3 2 4 -1 1 -8 -6 -34 21 -34 35 0 6 -4
8 -10 5 -5 -3 -10 -1 -10 6 0 7 -3 10 -6 6 -3 -3 -12 0 -19 6 -9 9 -10 16 -2
25 6 7 6 12 1 11 -29 -5 -54 3 -54 17 0 11 -5 14 -16 10 -11 -4 -15 -2 -11 8
4 9 -2 17 -14 21 -10 4 -17 11 -14 16 3 5 -1 6 -9 3 -9 -3 -16 -1 -16 5 0 7
-13 17 -30 22 -16 6 -30 16 -31 22 0 7 -4 3 -9 -8 -8 -19 -9 -19 -9 3 -1 13
-5 20 -11 17 -5 -3 -10 -2 -10 3 0 6 -8 8 -19 5 -11 -3 -21 2 -25 12 -3 9 -10
13 -16 10 -6 -3 -13 0 -16 8 -3 9 -13 13 -25 10 -12 -3 -19 0 -19 8 0 11 -2
11 -10 -1 -8 -12 -10 -12 -10 5 0 15 -2 17 -9 6 -7 -10 -9 -11 -13 -1 -2 7
-14 15 -27 17 -15 2 -20 -1 -15 -9 6 -10 4 -11 -7 0 -7 6 -21 12 -31 12 -10 0
-18 5 -18 11 0 5 -4 8 -9 4 -5 -3 -12 -1 -16 5 -4 6 -11 8 -16 5 -5 -4 -9 0
-9 7 0 9 -3 9 -10 -2 -7 -12 -10 -12 -10 -1 0 7 -6 11 -15 7 -8 -3 -15 -1 -15
5 0 6 -7 9 -15 5 -8 -3 -15 -1 -15 4 0 6 -5 10 -11 10 -5 0 -8 -4 -5 -9 10
-15 -22 -6 -42 12 -13 12 -21 14 -29 6 -8 -8 -13 -7 -18 2 -6 8 -4 10 5 4 7
-5 11 -4 7 1 -3 5 -20 9 -39 8 -18 -1 -35 2 -38 5 -3 3 -19 11 -37 17 -23 9
-34 9 -44 0 -9 -8 -10 -8 -5 2 4 6 2 12 -3 12 -6 0 -11 -6 -11 -12 0 -10 -2
-10 -8 -1 -5 7 -35 15 -68 19 -32 3 -64 7 -70 9 -6 2 -16 0 -23 -5z m-2491
-1294 c0 -2 -7 -9 -15 -16 -13 -11 -14 -10 -9 4 5 14 24 23 24 12z"/>
<path d="M5515 8750 c3 -5 8 -10 11 -10 2 0 4 5 4 10 0 6 -5 10 -11 10 -5 0
-7 -4 -4 -10z"/>
<path d="M2020 5950 c-9 -6 -10 -10 -3 -10 6 0 15 5 18 10 8 12 4 12 -15 0z"/>
</g>
</svg>
